<?xml version='1.0' encoding='UTF-8'?>
<svg width="29mm" height="29mm" version="1.1" viewBox="0 0 29 29" xmlns="http://www.w3.org/2000/svg"><path d="M0,0H1V1H0zM1,0H2V1H1zM2,0H3V1H2zM3,0H4V1H3zM4,0H5V1H4zM5,0H6V1H5zM6,0H7V1H6zM8,0H9V1H8zM9,0H10V1H9zM10,0H11V1H10zM13,0H14V1H13zM14,0H15V1H14zM15,0H16V1H15zM18,0H19V1H18zM19,0H20V1H19zM20,0H21V1H20zM22,0H23V1H22zM23,0H24V1H23zM24,0H25V1H24zM25,0H26V1H25zM26,0H27V1H26zM27,0H28V1H27zM28,0H29V1H28zM0,1H1V2H0zM6,1H7V2H6zM8,1H9V2H8zM9,1H10V2H9zM13,1H14V2H13zM16,1H17V2H16zM17,1H18V2H17zM18,1H19V2H18zM20,1H21V2H20zM22,1H23V2H22zM28,1H29V2H28zM0,2H1V3H0zM2,2H3V3H2zM3,2H4V3H3zM4,2H5V3H4zM6,2H7V3H6zM10,2H11V3H10zM11,2H12V3H11zM12,2H13V3H12zM16,2H17V3H16zM18,2H19V3H18zM19,2H20V3H19zM20,2H21V3H20zM22,2H23V3H22zM24,2H25V3H24zM25,2H26V3H25zM26,2H27V3H26zM28,2H29V3H28zM0,3H1V4H0zM2,3H3V4H2zM3,3H4V4H3zM4,3H5V4H4zM6,3H7V4H6zM8,3H9V4H8zM10,3H11V4H10zM11,3H12V4H11zM14,3H15V4H14zM15,3H16V4H15zM17,3H18V4H17zM18,3H19V4H18zM19,3H20V4H19zM22,3H23V4H22zM24,3H25V4H24zM25,3H26V4H25zM26,3H27V4H26zM28,3H29V4H28zM0,4H1V5H0zM2,4H3V5H2zM3,4H4V5H3zM4,4H5V5H4zM6,4H7V5H6zM9,4H10V5H9zM11,4H12V5H11zM12,4H13V5H12zM14,4H15V5H14zM16,4H17V5H16zM19,4H20V5H19zM22,4H23V5H22zM24,4H25V5H24zM25,4H26V5H25zM26,4H27V5H26zM28,4H29V5H28zM0,5H1V6H0zM6,5H7V6H6zM9,5H10V6H9zM13,5H14V6H13zM15,5H16V6H15zM16,5H17V6H16zM18,5H19V6H18zM19,5H20V6H19zM22,5H23V6H22zM28,5H29V6H28zM0,6H1V7H0zM1,6H2V7H1zM2,6H3V7H2zM3,6H4V7H3zM4,6H5V7H4zM5,6H6V7H5zM6,6H7V7H6zM8,6H9V7H8zM10,6H11V7H10zM12,6H13V7H12zM14,6H15V7H14zM16,6H17V7H16zM18,6H19V7H18zM20,6H21V7H20zM22,6H23V7H22zM23,6H24V7H23zM24,6H25V7H24zM25,6H26V7H25zM26,6H27V7H26zM27,6H28V7H27zM28,6H29V7H28zM8,7H9V8H8zM11,7H12V8H11zM12,7H13V8H12zM15,7H16V8H15zM16,7H17V8H16zM17,7H18V8H17zM18,7H19V8H18zM20,7H21V8H20zM0,8H1V9H0zM2,8H3V9H2zM3,8H4V9H3zM5,8H6V9H5zM6,8H7V9H6zM7,8H8V9H7zM11,8H12V9H11zM12,8H13V9H12zM13,8H14V9H13zM15,8H16V9H15zM16,8H17V9H16zM17,8H18V9H17zM18,8H19V9H18zM19,8H20V9H19zM20,8H21V9H20zM22,8H23V9H22zM25,8H26V9H25zM27,8H28V9H27zM28,8H29V9H28zM2,9H3V10H2zM3,9H4V10H3zM4,9H5V10H4zM9,9H10V10H9zM11,9H12V10H11zM12,9H13V10H12zM13,9H14V10H13zM14,9H15V10H14zM15,9H16V10H15zM18,9H19V10H18zM19,9H20V10H19zM20,9H21V10H20zM21,9H22V10H21zM22,9H23V10H22zM23,9H24V10H23zM24,9H25V10H24zM25,9H26V10H25zM27,9H28V10H27zM28,9H29V10H28zM1,10H2V11H1zM3,10H4V11H3zM5,10H6V11H5zM6,10H7V11H6zM8,10H9V11H8zM11,10H12V11H11zM13,10H14V11H13zM16,10H17V11H16zM25,10H26V11H25zM26,10H27V11H26zM27,10H28V11H27zM0,11H1V12H0zM3,11H4V12H3zM8,11H9V12H8zM10,11H11V12H10zM15,11H16V12H15zM16,11H17V12H16zM18,11H19V12H18zM19,11H20V12H19zM21,11H22V12H21zM22,11H23V12H22zM23,11H24V12H23zM27,11H28V12H27zM28,11H29V12H28zM0,12H1V13H0zM1,12H2V13H1zM2,12H3V13H2zM3,12H4V13H3zM6,12H7V13H6zM9,12H10V13H9zM14,12H15V13H14zM15,12H16V13H15zM16,12H17V13H16zM17,12H18V13H17zM23,12H24V13H23zM26,12H27V13H26zM28,12H29V13H28zM1,13H2V14H1zM3,13H4V14H3zM5,13H6V14H5zM8,13H9V14H8zM10,13H11V14H10zM11,13H12V14H11zM14,13H15V14H14zM15,13H16V14H15zM19,13H20V14H19zM22,13H23V14H22zM25,13H26V14H25zM28,13H29V14H28zM1,14H2V15H1zM4,14H5V15H4zM6,14H7V15H6zM10,14H11V15H10zM11,14H12V15H11zM13,14H14V15H13zM16,14H17V15H16zM17,14H18V15H17zM18,14H19V15H18zM19,14H20V15H19zM20,14H21V15H20zM22,14H23V15H22zM23,14H24V15H23zM25,14H26V15H25zM27,14H28V15H27zM28,14H29V15H28zM0,15H1V16H0zM1,15H2V16H1zM4,15H5V16H4zM7,15H8V16H7zM8,15H9V16H8zM10,15H11V16H10zM14,15H15V16H14zM15,15H16V16H15zM20,15H21V16H20zM21,15H22V16H21zM22,15H23V16H22zM24,15H25V16H24zM25,15H26V16H25zM2,16H3V17H2zM3,16H4V17H3zM4,16H5V17H4zM5,16H6V17H5zM6,16H7V17H6zM7,16H8V17H7zM8,16H9V17H8zM9,16H10V17H9zM10,16H11V17H10zM11,16H12V17H11zM12,16H13V17H12zM14,16H15V17H14zM16,16H17V17H16zM19,16H20V17H19zM20,16H21V17H20zM21,16H22V17H21zM24,16H25V17H24zM1,17H2V18H1zM2,17H3V18H2zM3,17H4V18H3zM10,17H11V18H10zM11,17H12V18H11zM14,17H15V18H14zM15,17H16V18H15zM16,17H17V18H16zM17,17H18V18H17zM20,17H21V18H20zM23,17H24V18H23zM25,17H26V18H25zM0,18H1V19H0zM2,18H3V19H2zM6,18H7V19H6zM10,18H11V19H10zM12,18H13V19H12zM13,18H14V19H13zM14,18H15V19H14zM15,18H16V19H15zM16,18H17V19H16zM17,18H18V19H17zM20,18H21V19H20zM22,18H23V19H22zM23,18H24V19H23zM25,18H26V19H25zM2,19H3V20H2zM7,19H8V20H7zM8,19H9V20H8zM13,19H14V20H13zM14,19H15V20H14zM15,19H16V20H15zM16,19H17V20H16zM17,19H18V20H17zM18,19H19V20H18zM21,19H22V20H21zM22,19H23V20H22zM24,19H25V20H24zM26,19H27V20H26zM27,19H28V20H27zM28,19H29V20H28zM1,20H2V21H1zM4,20H5V21H4zM5,20H6V21H5zM6,20H7V21H6zM8,20H9V21H8zM9,20H10V21H9zM10,20H11V21H10zM11,20H12V21H11zM13,20H14V21H13zM14,20H15V21H14zM15,20H16V21H15zM16,20H17V21H16zM17,20H18V21H17zM18,20H19V21H18zM20,20H21V21H20zM21,20H22V21H21zM22,20H23V21H22zM23,20H24V21H23zM24,20H25V21H24zM25,20H26V21H25zM26,20H27V21H26zM28,20H29V21H28zM8,21H9V22H8zM10,21H11V22H10zM20,21H21V22H20zM24,21H25V22H24zM25,21H26V22H25zM26,21H27V22H26zM28,21H29V22H28zM0,22H1V23H0zM1,22H2V23H1zM2,22H3V23H2zM3,22H4V23H3zM4,22H5V23H4zM5,22H6V23H5zM6,22H7V23H6zM8,22H9V23H8zM9,22H10V23H9zM10,22H11V23H10zM11,22H12V23H11zM12,22H13V23H12zM14,22H15V23H14zM16,22H17V23H16zM17,22H18V23H17zM18,22H19V23H18zM19,22H20V23H19zM20,22H21V23H20zM22,22H23V23H22zM24,22H25V23H24zM27,22H28V23H27zM0,23H1V24H0zM6,23H7V24H6zM8,23H9V24H8zM9,23H10V24H9zM10,23H11V24H10zM12,23H13V24H12zM13,23H14V24H13zM14,23H15V24H14zM19,23H20V24H19zM20,23H21V24H20zM24,23H25V24H24zM0,24H1V25H0zM2,24H3V25H2zM3,24H4V25H3zM4,24H5V25H4zM6,24H7V25H6zM12,24H13V25H12zM15,24H16V25H15zM17,24H18V25H17zM20,24H21V25H20zM21,24H22V25H21zM22,24H23V25H22zM23,24H24V25H23zM24,24H25V25H24zM26,24H27V25H26zM27,24H28V25H27zM0,25H1V26H0zM2,25H3V26H2zM3,25H4V26H3zM4,25H5V26H4zM6,25H7V26H6zM8,25H9V26H8zM9,25H10V26H9zM12,25H13V26H12zM13,25H14V26H13zM15,25H16V26H15zM16,25H17V26H16zM17,25H18V26H17zM18,25H19V26H18zM19,25H20V26H19zM21,25H22V26H21zM23,25H24V26H23zM24,25H25V26H24zM28,25H29V26H28zM0,26H1V27H0zM2,26H3V27H2zM3,26H4V27H3zM4,26H5V27H4zM6,26H7V27H6zM8,26H9V27H8zM9,26H10V27H9zM12,26H13V27H12zM13,26H14V27H13zM17,26H18V27H17zM28,26H29V27H28zM0,27H1V28H0zM6,27H7V28H6zM10,27H11V28H10zM12,27H13V28H12zM13,27H14V28H13zM14,27H15V28H14zM15,27H16V28H15zM16,27H17V28H16zM18,27H19V28H18zM20,27H21V28H20zM21,27H22V28H21zM23,27H24V28H23zM25,27H26V28H25zM27,27H28V28H27zM0,28H1V29H0zM1,28H2V29H1zM2,28H3V29H2zM3,28H4V29H3zM4,28H5V29H4zM5,28H6V29H5zM6,28H7V29H6zM8,28H9V29H8zM13,28H14V29H13zM18,28H19V29H18zM19,28H20V29H19zM20,28H21V29H20zM21,28H22V29H21zM24,28H25V29H24zM27,28H28V29H27z" id="qr-path" fill="#000000" fill-opacity="1" fill-rule="nonzero" stroke="none" /></svg>